<?xml version="1.0" encoding="UTF-8" standalone="no"?>
<svg
   xmlns:dc="http://purl.org/dc/elements/1.1/"
   xmlns:cc="http://creativecommons.org/ns#"
   xmlns:rdf="http://www.w3.org/1999/02/22-rdf-syntax-ns#"
   xmlns:svg="http://www.w3.org/2000/svg"
   xmlns="http://www.w3.org/2000/svg"
   viewBox="0 0 1365.3333 1365.3333"
   height="1365.3333"
   width="1365.3333"
   xml:space="preserve"
   id="svg2"
   version="1.1"><metadata
     id="metadata8"><rdf:RDF><cc:Work
         rdf:about=""><dc:format>image/svg+xml</dc:format><dc:type
           rdf:resource="http://purl.org/dc/dcmitype/StillImage" /></cc:Work></rdf:RDF></metadata><defs
     id="defs6"><clipPath
       id="clipPath20"
       clipPathUnits="userSpaceOnUse"><path
         id="path18"
         d="M 0,1024 H 1024 V 0 H 0 Z" /></clipPath><clipPath
       id="clipPath38"
       clipPathUnits="userSpaceOnUse"><path
         id="path36"
         d="M 0,1024 H 1024 V 0 H 0 Z" /></clipPath><clipPath
       id="clipPath46"
       clipPathUnits="userSpaceOnUse"><path
         id="path44"
         d="m 101.286,947.604 h 830.75 v -658.21 h -830.75 z" /></clipPath></defs><g
     transform="matrix(1.3333333,0,0,-1.3333333,0,1365.3333)"
     id="g10"><path
       id="path12"
       style="fill:#231f20;fill-opacity:1;fill-rule:nonzero;stroke:none"
       d="M 0,0 H 1024 V 1024 H 0 Z" /><g
       id="g14"><g
         clip-path="url(#clipPath20)"
         id="g16"><path
           id="path22"
           style="fill:none;stroke:#231f20;stroke-width:1;stroke-linecap:butt;stroke-linejoin:miter;stroke-miterlimit:10;stroke-dasharray:none;stroke-opacity:1"
           d="M 1024,0 H 0 v 1024 h 1024 z" /></g></g><text
       id="text26"
       style="font-variant:normal;font-weight:normal;font-stretch:normal;font-size:249.5579071px;font-family:Cinematografica;-inkscape-font-specification:Cinematografica;writing-mode:lr-tb;fill:#ffffff;fill-opacity:1;fill-rule:nonzero;stroke:none"
       transform="matrix(1,0,0,-0.43921871,98.9326,163.1123)"><tspan
         id="tspan24"
         y="0"
         x="0 60.393013 103.66635 147.46376 199.62137 245.29047 274.48874 326.64633 356.34372 412.49426 458.16336 505.82892 559.98297 607.64856 655.31409 715.70709 777.09833">Natalia Alexeenko</tspan></text>
<text
       id="text30"
       style="font-variant:normal;font-weight:normal;font-stretch:normal;font-size:145.2539978px;font-family:Cinematografica;-inkscape-font-specification:Cinematografica;writing-mode:lr-tb;fill:#ffffff;fill-opacity:1;fill-rule:nonzero;stroke:none"
       transform="matrix(1,0,0,-0.4392182,296.4531,84.3955)"><tspan
         id="tspan28"
         y="0"
         x="0 16.994719 52.146187 82.21376 109.95728 145.39926 162.39397 198.12645 233.56844 250.85365 286.29562 314.03915 349.48111 366.47583 402.20831">interior design</tspan></text>
<g
       id="g32"><g
         clip-path="url(#clipPath38)"
         id="g34"><g
           id="g40"><g
             id="g42" /><g
             id="g378"><g
               id="g376"
               clip-path="url(#clipPath46)"><g
                 id="g50"
                 transform="translate(932.0361,600.2842)"><path
                   id="path48"
                   style="fill:#231f20;fill-opacity:1;fill-rule:nonzero;stroke:none"
                   d="m 0,0 v -2.28 l -1.5,1.17 z" /></g><g
                 id="g54"
                 transform="translate(932.0361,625.7842)"><path
                   id="path52"
                   style="fill:#231f20;fill-opacity:1;fill-rule:nonzero;stroke:none"
                   d="m 0,0 v -25.5 l -1.5,-1.11 -16.8,13.11 z" /></g><g
                 id="g58"
                 transform="translate(930.5361,599.1743)"><path
                   id="path56"
                   style="fill:#231f20;fill-opacity:1;fill-rule:nonzero;stroke:none"
                   d="m 0,0 -17.15,-12.65 -16.8,13.1 17.15,12.66 z" /></g><g
                 id="g62"
                 transform="translate(913.3857,765.5244)"><path
                   id="path60"
                   style="fill:#231f20;fill-opacity:1;fill-rule:nonzero;stroke:none"
                   d="m 0,0 17.15,12.65 1.5,-1.17 v -26.04 z" /></g><g
                 id="g66"
                 transform="translate(913.7363,791.2842)"><path
                   id="path64"
                   style="fill:#231f20;fill-opacity:1;fill-rule:nonzero;stroke:none"
                   d="M 0,0 16.8,-13.11 -0.351,-25.76 -17.15,-12.66 Z" /></g><g
                 id="g70"
                 transform="translate(932.0361,750.9644)"><path
                   id="path68"
                   style="fill:#231f20;fill-opacity:1;fill-rule:nonzero;stroke:none"
                   d="m 0,0 v -125.18 l -18.3,-13.5 -101.11,78.9 100.76,74.34 z" /></g><g
                 id="g74"
                 transform="translate(896.5859,778.6245)"><path
                   id="path72"
                   style="fill:#231f20;fill-opacity:1;fill-rule:nonzero;stroke:none"
                   d="m 0,0 -177.41,138.46 17.15,12.65 L 17.15,12.66 Z" /></g><g
                 id="g78"
                 transform="translate(812.626,691.1841)"><path
                   id="path76"
                   style="fill:#231f20;fill-opacity:1;fill-rule:nonzero;stroke:none"
                   d="M 0,0 101.11,-78.9 83.96,-91.56 -17.14,-12.65 Z" /></g><g
                 id="g82"
                 transform="translate(795.8359,704.2944)"><path
                   id="path80"
                   style="fill:#231f20;fill-opacity:1;fill-rule:nonzero;stroke:none"
                   d="M 0,0 100.75,74.33 117.55,61.23 16.79,-13.11 Z" /></g><g
                 id="g86"
                 transform="translate(795.8359,704.2944)"><path
                   id="path84"
                   style="fill:#231f20;fill-opacity:1;fill-rule:nonzero;stroke:none"
                   d="m 0,0 16.79,-13.11 -17.14,-12.65 -16.8,13.11 z" /></g><g
                 id="g90"
                 transform="translate(711.9463,463.4043)"><path
                   id="path88"
                   style="fill:#231f20;fill-opacity:1;fill-rule:nonzero;stroke:none"
                   d="M 0,0 184.64,136.22 201.439,123.12 16.79,-13.11 Z" /></g><g
                 id="g94"
                 transform="translate(711.9463,642.4043)"><path
                   id="path92"
                   style="fill:#231f20;fill-opacity:1;fill-rule:nonzero;stroke:none"
                   d="M 0,0 66.739,49.24 83.54,36.13 16.79,-13.11 Z" /></g><g
                 id="g98"
                 transform="translate(736.3262,750.7344)"><path
                   id="path96"
                   style="fill:#231f20;fill-opacity:1;fill-rule:nonzero;stroke:none"
                   d="M 0,0 59.51,-46.44 42.359,-59.09 -17.15,-12.65 Z" /></g><g
                 id="g102"
                 transform="translate(736.3262,929.7344)"><path
                   id="path100"
                   style="fill:#231f20;fill-opacity:1;fill-rule:nonzero;stroke:none"
                   d="m 0,0 -17.15,-12.65 -16.8,13.11 17.149,12.65 z" /></g><g
                 id="g106"
                 transform="translate(736.3262,750.7344)"><path
                   id="path104"
                   style="fill:#231f20;fill-opacity:1;fill-rule:nonzero;stroke:none"
                   d="m 0,0 -17.15,-12.65 -16.8,13.11 17.149,12.65 z" /></g><g
                 id="g110"
                 transform="translate(728.7363,629.2944)"><path
                   id="path108"
                   style="fill:#231f20;fill-opacity:1;fill-rule:nonzero;stroke:none"
                   d="M 0,0 -17.141,-12.65 -33.94,0.46 -16.79,13.11 Z" /></g><g
                 id="g114"
                 transform="translate(728.7363,450.2939)"><path
                   id="path112"
                   style="fill:#231f20;fill-opacity:1;fill-rule:nonzero;stroke:none"
                   d="M 0,0 -17.141,-12.649 -33.94,0.46 -16.79,13.11 Z" /></g><g
                 id="g118"
                 transform="translate(511.0059,315.1543)"><path
                   id="path116"
                   style="fill:#231f20;fill-opacity:1;fill-rule:nonzero;stroke:none"
                   d="M 0,0 183.79,135.6 200.59,122.49 16.8,-13.11 Z" /></g><g
                 id="g122"
                 transform="translate(719.5254,763.8442)"><path
                   id="path120"
                   style="fill:#231f20;fill-opacity:1;fill-rule:nonzero;stroke:none"
                   d="M 0,0 -101.109,78.91 -0.35,153.24 177.061,14.78 76.311,-59.55 16.801,-13.11 Z" /></g><g
                 id="g126"
                 transform="translate(711.9463,463.4043)"><path
                   id="path124"
                   style="fill:#231f20;fill-opacity:1;fill-rule:nonzero;stroke:none"
                   d="m 0,0 -101.11,78.9 100.759,74.34 17.141,12.65 66.75,49.24 101.1,-78.91 z" /></g><g
                 id="g130"
                 transform="translate(652.4355,688.8442)"><path
                   id="path128"
                   style="fill:#231f20;fill-opacity:1;fill-rule:nonzero;stroke:none"
                   d="M 0,0 66.74,49.24 126.25,2.8 59.511,-46.44 Z" /></g><g
                 id="g134"
                 transform="translate(618.416,842.7544)"><path
                   id="path132"
                   style="fill:#231f20;fill-opacity:1;fill-rule:nonzero;stroke:none"
                   d="M 0,0 101.109,-78.91 83.96,-91.56 -17.15,-12.66 Z" /></g><g
                 id="g138"
                 transform="translate(635.6357,701.9541)"><path
                   id="path136"
                   style="fill:#231f20;fill-opacity:1;fill-rule:nonzero;stroke:none"
                   d="M 0,0 66.74,49.24 83.54,36.13 16.8,-13.11 Z" /></g><g
                 id="g142"
                 transform="translate(652.4355,688.8442)"><path
                   id="path140"
                   style="fill:#231f20;fill-opacity:1;fill-rule:nonzero;stroke:none"
                   d="M 0,0 59.511,-46.44 42.36,-59.09 -17.149,-12.65 Z" /></g><g
                 id="g146"
                 transform="translate(610.8359,542.3042)"><path
                   id="path144"
                   style="fill:#231f20;fill-opacity:1;fill-rule:nonzero;stroke:none"
                   d="M 0,0 101.11,-78.9 83.96,-91.55 -17.15,-12.65 Z" /></g><g
                 id="g150"
                 transform="translate(652.4355,688.8442)"><path
                   id="path148"
                   style="fill:#231f20;fill-opacity:1;fill-rule:nonzero;stroke:none"
                   d="M 0,0 -17.149,-12.65 -33.949,0.46 -16.8,13.11 Z" /></g><g
                 id="g154"
                 transform="translate(601.6162,855.8643)"><path
                   id="path152"
                   style="fill:#231f20;fill-opacity:1;fill-rule:nonzero;stroke:none"
                   d="M 0,0 100.76,74.33 117.56,61.22 16.8,-13.11 Z" /></g><g
                 id="g158"
                 transform="translate(594.0361,555.4141)"><path
                   id="path156"
                   style="fill:#231f20;fill-opacity:1;fill-rule:nonzero;stroke:none"
                   d="M 0,0 100.76,74.34 117.56,61.23 16.8,-13.11 Z" /></g><g
                 id="g162"
                 transform="translate(618.416,842.7544)"><path
                   id="path160"
                   style="fill:#231f20;fill-opacity:1;fill-rule:nonzero;stroke:none"
                   d="M 0,0 -17.15,-12.66 -33.95,0.45 -16.8,13.11 Z" /></g><g
                 id="g166"
                 transform="translate(610.8359,542.3042)"><path
                   id="path164"
                   style="fill:#231f20;fill-opacity:1;fill-rule:nonzero;stroke:none"
                   d="M 0,0 -17.15,-12.65 -33.95,0.46 -16.8,13.11 Z" /></g><g
                 id="g170"
                 transform="translate(534.5254,780.8545)"><path
                   id="path168"
                   style="fill:#231f20;fill-opacity:1;fill-rule:nonzero;stroke:none"
                   d="M 0,0 66.74,49.24 167.851,-29.66 101.11,-78.9 Z" /></g><g
                 id="g174"
                 transform="translate(511.0059,494.1543)"><path
                   id="path172"
                   style="fill:#231f20;fill-opacity:1;fill-rule:nonzero;stroke:none"
                   d="M 0,0 65.88,48.61 82.68,35.5 16.8,-13.11 Z" /></g><g
                 id="g178"
                 transform="translate(618.4863,689.3042)"><path
                   id="path176"
                   style="fill:#231f20;fill-opacity:1;fill-rule:nonzero;stroke:none"
                   d="m 0,0 -101.11,78.9 17.149,12.65 101.11,-78.9 z" /></g><g
                 id="g182"
                 transform="translate(534.5254,601.8545)"><path
                   id="path180"
                   style="fill:#231f20;fill-opacity:1;fill-rule:nonzero;stroke:none"
                   d="M 0,0 100.761,74.34 160.271,27.9 59.511,-46.44 Z" /></g><g
                 id="g186"
                 transform="translate(635.2861,676.1943)"><path
                   id="path184"
                   style="fill:#231f20;fill-opacity:1;fill-rule:nonzero;stroke:none"
                   d="m 0,0 -100.761,-74.34 -16.8,13.11 100.761,74.34 z" /></g><g
                 id="g190"
                 transform="translate(601.2656,830.0942)"><path
                   id="path188"
                   style="fill:#231f20;fill-opacity:1;fill-rule:nonzero;stroke:none"
                   d="m 0,0 -66.74,-49.24 -16.8,13.11 66.74,49.24 z" /></g><g
                 id="g194"
                 transform="translate(534.5254,601.8545)"><path
                   id="path192"
                   style="fill:#231f20;fill-opacity:1;fill-rule:nonzero;stroke:none"
                   d="M 0,0 59.511,-46.44 42.36,-59.09 -17.149,-12.65 Z" /></g><g
                 id="g198"
                 transform="translate(517.7256,793.9644)"><path
                   id="path196"
                   style="fill:#231f20;fill-opacity:1;fill-rule:nonzero;stroke:none"
                   d="m 0,0 16.8,-13.11 -17.15,-12.65 -16.8,13.11 z" /></g><g
                 id="g202"
                 transform="translate(517.7256,614.9644)"><path
                   id="path200"
                   style="fill:#231f20;fill-opacity:1;fill-rule:nonzero;stroke:none"
                   d="m 0,0 16.8,-13.11 -17.15,-12.65 -16.8,13.11 z" /></g><g
                 id="g206"
                 transform="translate(694.7959,450.7539)"><path
                   id="path204"
                   style="fill:#231f20;fill-opacity:1;fill-rule:nonzero;stroke:none"
                   d="m 0,0 -183.79,-135.6 -0.97,0.76 V 17.181 l 0.62,0.46 17.15,12.649 65.88,48.61 z" /></g><g
                 id="g210"
                 transform="translate(527.8057,302.0439)"><path
                   id="path208"
                   style="fill:#231f20;fill-opacity:1;fill-rule:nonzero;stroke:none"
                   d="m 0,0 -17.15,-12.649 -1.68,1.309 1.06,1.351 V 12.4 l 0.97,0.71 z" /></g><g
                 id="g214"
                 transform="translate(510.0356,315.9141)"><path
                   id="path212"
                   style="fill:#231f20;fill-opacity:1;fill-rule:nonzero;stroke:none"
                   d="M 0,0 0.97,-0.76 0,-1.47 Z" /></g><g
                 id="g218"
                 transform="translate(510.6558,468.3945)"><path
                   id="path216"
                   style="fill:#231f20;fill-opacity:1;fill-rule:nonzero;stroke:none"
                   d="M 0,0 -0.62,-0.46 V 0.479 Z" /></g><g
                 id="g222"
                 transform="translate(510.0356,314.4443)"><path
                   id="path220"
                   style="fill:#231f20;fill-opacity:1;fill-rule:nonzero;stroke:none"
                   d="m 0,0 v -22.39 l -1.06,-1.35 -15.12,11.8 z" /></g><g
                 id="g226"
                 transform="translate(510.0356,468.874)"><path
                   id="path224"
                   style="fill:#231f20;fill-opacity:1;fill-rule:nonzero;stroke:none"
                   d="M 0,0 -16.18,12.63 0.97,25.28 17.77,12.17 0.62,-0.479 Z" /></g><g
                 id="g230"
                 transform="translate(517.7256,614.9644)"><path
                   id="path228"
                   style="fill:#231f20;fill-opacity:1;fill-rule:nonzero;stroke:none"
                   d="M 0,0 -101.1,78.91 -0.35,153.24 100.761,74.34 Z" /></g><g
                 id="g234"
                 transform="translate(451.4961,540.6045)"><path
                   id="path232"
                   style="fill:#231f20;fill-opacity:1;fill-rule:nonzero;stroke:none"
                   d="M 0,0 65.88,48.6 125.39,2.16 59.51,-46.45 Z" /></g><g
                 id="g238"
                 transform="translate(493.856,481.5039)"><path
                   id="path236"
                   style="fill:#231f20;fill-opacity:1;fill-rule:nonzero;stroke:none"
                   d="m 0,0 16.18,-12.63 v -0.939 -152.021 l -176.44,137.7 100.75,74.33 z" /></g><g
                 id="g242"
                 transform="translate(511.0059,494.1543)"><path
                   id="path240"
                   style="fill:#231f20;fill-opacity:1;fill-rule:nonzero;stroke:none"
                   d="m 0,0 -17.15,-12.65 -59.51,46.44 17.15,12.66 z" /></g><g
                 id="g246"
                 transform="translate(333.5957,453.6143)"><path
                   id="path244"
                   style="fill:#231f20;fill-opacity:1;fill-rule:nonzero;stroke:none"
                   d="m 0,0 176.44,-137.7 v -1.47 l -16.18,-11.94 -177.41,138.46 z" /></g><g
                 id="g250"
                 transform="translate(416.626,693.8745)"><path
                   id="path248"
                   style="fill:#231f20;fill-opacity:1;fill-rule:nonzero;stroke:none"
                   d="m 0,0 101.1,-78.91 -17.15,-12.65 -101.1,78.9 z" /></g><g
                 id="g254"
                 transform="translate(434.6958,553.7144)"><path
                   id="path252"
                   style="fill:#231f20;fill-opacity:1;fill-rule:nonzero;stroke:none"
                   d="M 0,0 65.88,48.6 82.68,35.49 16.8,-13.11 Z" /></g><g
                 id="g258"
                 transform="translate(451.4961,540.6045)"><path
                   id="path256"
                   style="fill:#231f20;fill-opacity:1;fill-rule:nonzero;stroke:none"
                   d="M 0,0 -17.15,-12.66 -33.95,0.45 -16.8,13.11 Z" /></g><g
                 id="g262"
                 transform="translate(399.8257,706.9844)"><path
                   id="path260"
                   style="fill:#231f20;fill-opacity:1;fill-rule:nonzero;stroke:none"
                   d="M 0,0 100.75,74.33 117.55,61.22 16.8,-13.11 Z" /></g><g
                 id="g266"
                 transform="translate(416.626,693.8745)"><path
                   id="path264"
                   style="fill:#231f20;fill-opacity:1;fill-rule:nonzero;stroke:none"
                   d="M 0,0 -17.15,-12.66 -33.95,0.45 -16.8,13.11 Z" /></g><g
                 id="g270"
                 transform="translate(399.4761,681.2144)"><path
                   id="path268"
                   style="fill:#231f20;fill-opacity:1;fill-rule:nonzero;stroke:none"
                   d="m 0,0 101.1,-78.9 -65.88,-48.6 -101.1,78.9 z" /></g><g
                 id="g274"
                 transform="translate(337.6558,934.4941)"><path
                   id="path272"
                   style="fill:#231f20;fill-opacity:1;fill-rule:nonzero;stroke:none"
                   d="m 0,0 180.07,-140.53 -17.15,-12.65 -79.27,61.86 -100.8,78.67 z" /></g><g
                 id="g278"
                 transform="translate(333.5957,632.6143)"><path
                   id="path276"
                   style="fill:#231f20;fill-opacity:1;fill-rule:nonzero;stroke:none"
                   d="M 0,0 101.1,-78.9 83.95,-91.56 -17.15,-12.65 Z" /></g><g
                 id="g282"
                 transform="translate(421.3057,843.1743)"><path
                   id="path280"
                   style="fill:#231f20;fill-opacity:1;fill-rule:nonzero;stroke:none"
                   d="m 0,0 79.27,-61.86 -100.75,-74.33 -62.17,48.51 -16.8,13.11 99.61,73.49 z" /></g><g
                 id="g286"
                 transform="translate(337.6558,755.4941)"><path
                   id="path284"
                   style="fill:#231f20;fill-opacity:1;fill-rule:nonzero;stroke:none"
                   d="M 0,0 62.17,-48.51 45.02,-61.17 -17.15,-12.65 Z" /></g><g
                 id="g290"
                 transform="translate(316.7959,645.7241)"><path
                   id="path288"
                   style="fill:#231f20;fill-opacity:1;fill-rule:nonzero;stroke:none"
                   d="M 0,0 65.88,48.6 82.68,35.49 16.8,-13.11 Z" /></g><g
                 id="g294"
                 transform="translate(316.7959,466.7246)"><path
                   id="path292"
                   style="fill:#231f20;fill-opacity:1;fill-rule:nonzero;stroke:none"
                   d="M 0,0 100.75,74.33 117.55,61.22 16.8,-13.11 Z" /></g><g
                 id="g298"
                 transform="translate(320.856,947.6045)"><path
                   id="path296"
                   style="fill:#231f20;fill-opacity:1;fill-rule:nonzero;stroke:none"
                   d="m 0,0 16.8,-13.11 -17.15,-12.65 -16.8,13.11 z" /></g><g
                 id="g302"
                 transform="translate(320.856,768.6045)"><path
                   id="path300"
                   style="fill:#231f20;fill-opacity:1;fill-rule:nonzero;stroke:none"
                   d="m 0,0 16.8,-13.11 -17.15,-12.65 -16.8,13.11 z" /></g><g
                 id="g306"
                 transform="translate(333.5957,632.6143)"><path
                   id="path304"
                   style="fill:#231f20;fill-opacity:1;fill-rule:nonzero;stroke:none"
                   d="M 0,0 -17.15,-12.65 -33.95,0.46 -16.8,13.11 Z" /></g><g
                 id="g310"
                 transform="translate(333.5957,453.6143)"><path
                   id="path308"
                   style="fill:#231f20;fill-opacity:1;fill-rule:nonzero;stroke:none"
                   d="M 0,0 -17.15,-12.65 -33.95,0.46 -16.8,13.11 Z" /></g><g
                 id="g314"
                 transform="translate(254.626,694.2344)"><path
                   id="path312"
                   style="fill:#231f20;fill-opacity:1;fill-rule:nonzero;stroke:none"
                   d="M 0,0 65.88,48.61 128.05,0.09 62.17,-48.51 Z" /></g><g
                 id="g318"
                 transform="translate(316.7959,466.7246)"><path
                   id="path316"
                   style="fill:#231f20;fill-opacity:1;fill-rule:nonzero;stroke:none"
                   d="m 0,0 -180.07,140.53 100.75,74.33 62.17,-48.51 16.8,-13.11 101.1,-78.91 z" /></g><g
                 id="g322"
                 transform="translate(237.8257,707.3545)"><path
                   id="path320"
                   style="fill:#231f20;fill-opacity:1;fill-rule:nonzero;stroke:none"
                   d="M 0,0 65.88,48.6 82.68,35.49 16.8,-13.12 Z" /></g><g
                 id="g326"
                 transform="translate(136.7261,607.2544)"><path
                   id="path324"
                   style="fill:#231f20;fill-opacity:1;fill-rule:nonzero;stroke:none"
                   d="M 0,0 180.07,-140.53 162.92,-153.18 -17.15,-12.66 Z" /></g><g
                 id="g330"
                 transform="translate(254.626,694.2344)"><path
                   id="path328"
                   style="fill:#231f20;fill-opacity:1;fill-rule:nonzero;stroke:none"
                   d="M 0,0 62.17,-48.51 45.02,-61.16 -17.15,-12.65 Z" /></g><g
                 id="g334"
                 transform="translate(237.8257,707.3545)"><path
                   id="path332"
                   style="fill:#231f20;fill-opacity:1;fill-rule:nonzero;stroke:none"
                   d="m 0,0 16.8,-13.12 -17.15,-12.65 -16.8,13.11 z" /></g><g
                 id="g338"
                 transform="translate(303.7061,755.9541)"><path
                   id="path336"
                   style="fill:#231f20;fill-opacity:1;fill-rule:nonzero;stroke:none"
                   d="M 0,0 -65.88,-48.6 -166.98,30.3 16.8,165.89 117.6,87.22 116.76,86.14 17.15,12.65 Z" /></g><g
                 id="g342"
                 transform="translate(136.7261,786.2544)"><path
                   id="path340"
                   style="fill:#231f20;fill-opacity:1;fill-rule:nonzero;stroke:none"
                   d="m 0,0 101.1,-78.9 -17.15,-12.66 -101.1,78.9 z" /></g><g
                 id="g346"
                 transform="translate(119.9258,799.3643)"><path
                   id="path344"
                   style="fill:#231f20;fill-opacity:1;fill-rule:nonzero;stroke:none"
                   d="M 0,0 183.78,135.59 200.58,122.48 16.8,-13.11 Z" /></g><g
                 id="g350"
                 transform="translate(119.9258,620.3643)"><path
                   id="path348"
                   style="fill:#231f20;fill-opacity:1;fill-rule:nonzero;stroke:none"
                   d="M 0,0 100.75,74.33 117.55,61.22 16.8,-13.11 Z" /></g><g
                 id="g354"
                 transform="translate(136.7261,607.2544)"><path
                   id="path352"
                   style="fill:#231f20;fill-opacity:1;fill-rule:nonzero;stroke:none"
                   d="M 0,0 -17.15,-12.66 -33.95,0.46 -16.8,13.11 Z" /></g><g
                 id="g358"
                 transform="translate(136.7261,786.2544)"><path
                   id="path356"
                   style="fill:#231f20;fill-opacity:1;fill-rule:nonzero;stroke:none"
                   d="M 0,0 -17.15,-12.66 -33.95,0.46 -16.8,13.11 Z" /></g><g
                 id="g362"
                 transform="translate(119.9258,620.3643)"><path
                   id="path360"
                   style="fill:#231f20;fill-opacity:1;fill-rule:nonzero;stroke:none"
                   d="m 0,0 -17.15,-12.65 -1.49,1.16 v 26.03 z" /></g><g
                 id="g366"
                 transform="translate(102.7759,786.7144)"><path
                   id="path364"
                   style="fill:#231f20;fill-opacity:1;fill-rule:nonzero;stroke:none"
                   d="M 0,0 16.8,-13.12 -1.49,-26.61 V -1.1 Z" /></g><g
                 id="g370"
                 transform="translate(101.2856,634.9043)"><path
                   id="path368"
                   style="fill:#231f20;fill-opacity:1;fill-rule:nonzero;stroke:none"
                   d="M 0,0 V 125.2 L 18.29,138.69 119.39,59.79 18.64,-14.54 Z" /></g><g
                 id="g374"
                 transform="translate(102.7759,786.7144)"><path
                   id="path372"
                   style="fill:#231f20;fill-opacity:1;fill-rule:nonzero;stroke:none"
                   d="M 0,0 -1.49,-1.1 V 1.16 Z" /></g></g></g></g></g></g><g
       transform="translate(719.1758,738.0845)"
       id="g380"><path
         id="path382"
         style="fill:none;stroke:#ffffff;stroke-width:6;stroke-linecap:butt;stroke-linejoin:miter;stroke-miterlimit:10;stroke-dasharray:none;stroke-opacity:1"
         d="M 0,0 59.51,-46.44" /></g><g
       transform="translate(652.4355,688.8442)"
       id="g384"><path
         id="path386"
         style="fill:none;stroke:#ffffff;stroke-width:6;stroke-linecap:butt;stroke-linejoin:miter;stroke-miterlimit:10;stroke-dasharray:none;stroke-opacity:1"
         d="M 0,0 66.74,49.24" /></g><g
       transform="translate(451.4961,540.6045)"
       id="g388"><path
         id="path390"
         style="fill:none;stroke:#ffffff;stroke-width:6;stroke-linecap:butt;stroke-linejoin:miter;stroke-miterlimit:10;stroke-dasharray:none;stroke-opacity:1"
         d="M 0,0 65.88,48.6" /></g><g
       transform="translate(102.7759,607.7144)"
       id="g392"><path
         id="path394"
         style="fill:none;stroke:#ffffff;stroke-width:6;stroke-linecap:butt;stroke-linejoin:miter;stroke-miterlimit:10;stroke-dasharray:none;stroke-opacity:1"
         d="m 0,0 16.8,-13.12 180.07,-140.52 16.8,-13.11 177.41,-138.46 15.12,-11.8 1.68,-1.31" /></g><g
       transform="translate(510.0356,315.9141)"
       id="g396"><path
         id="path398"
         style="fill:none;stroke:#ffffff;stroke-width:6;stroke-linecap:butt;stroke-linejoin:miter;stroke-miterlimit:10;stroke-dasharray:none;stroke-opacity:1"
         d="M 0,0 0.97,-0.76" /></g><g
       transform="translate(517.376,589.2041)"
       id="g400"><path
         id="path402"
         style="fill:none;stroke:#ffffff;stroke-width:6;stroke-linecap:butt;stroke-linejoin:miter;stroke-miterlimit:10;stroke-dasharray:none;stroke-opacity:1"
         d="M 0,0 59.51,-46.44" /></g><g
       transform="translate(320.5059,742.8442)"
       id="g404"><path
         id="path406"
         style="fill:none;stroke:#ffffff;stroke-width:6;stroke-linecap:butt;stroke-linejoin:miter;stroke-miterlimit:10;stroke-dasharray:none;stroke-opacity:1"
         d="M 0,0 62.17,-48.52" /></g><g
       transform="translate(254.626,694.2344)"
       id="g408"><path
         id="path410"
         style="fill:none;stroke:#ffffff;stroke-width:6;stroke-linecap:butt;stroke-linejoin:miter;stroke-miterlimit:10;stroke-dasharray:none;stroke-opacity:1"
         d="M 0,0 65.88,48.61" /></g><g
       transform="translate(510.6558,289.3945)"
       id="g412"><path
         id="path414"
         style="fill:none;stroke:#ffffff;stroke-width:6;stroke-linecap:butt;stroke-linejoin:miter;stroke-miterlimit:10;stroke-dasharray:none;stroke-opacity:1"
         d="m 0,0 17.15,12.649 183.79,135.601 17.141,12.649 184.649,136.231 17.15,12.65" /></g><g
       transform="translate(101.2856,788.5044)"
       id="g416"><path
         id="path418"
         style="fill:none;stroke:#ffffff;stroke-width:6;stroke-linecap:butt;stroke-linejoin:miter;stroke-miterlimit:10;stroke-dasharray:none;stroke-opacity:1"
         d="m 0,0 v -0.63 -2.26 -25.51 -125.2 -26.03 -0.82" /></g><g
       transform="translate(719.1758,917.0845)"
       id="g420"><path
         id="path422"
         style="fill:none;stroke:#ffffff;stroke-width:6;stroke-linecap:butt;stroke-linejoin:miter;stroke-miterlimit:10;stroke-dasharray:none;stroke-opacity:1"
         d="M 0,0 177.41,-138.46" /></g><g
       transform="translate(719.5254,942.8442)"
       id="g424"><path
         id="path426"
         style="fill:none;stroke:#ffffff;stroke-width:6;stroke-linecap:butt;stroke-linejoin:miter;stroke-miterlimit:10;stroke-dasharray:none;stroke-opacity:1"
         d="m 0,0 16.801,-13.11 177.41,-138.45 16.8,-13.11" /></g><g
       transform="translate(534.5254,780.8545)"
       id="g428"><path
         id="path430"
         style="fill:none;stroke:#ffffff;stroke-width:6;stroke-linecap:butt;stroke-linejoin:miter;stroke-miterlimit:10;stroke-dasharray:none;stroke-opacity:1"
         d="M 0,0 66.74,49.24 83.891,61.9 184.65,136.23" /></g><g
       transform="translate(333.5957,632.6143)"
       id="g432"><path
         id="path434"
         style="fill:none;stroke:#ffffff;stroke-width:6;stroke-linecap:butt;stroke-linejoin:miter;stroke-miterlimit:10;stroke-dasharray:none;stroke-opacity:1"
         d="m 0,0 65.88,48.6 17.15,12.66 100.75,74.33" /></g><g
       transform="translate(517.7256,793.9644)"
       id="g436"><path
         id="path438"
         style="fill:none;stroke:#ffffff;stroke-width:6;stroke-linecap:butt;stroke-linejoin:miter;stroke-miterlimit:10;stroke-dasharray:none;stroke-opacity:1"
         d="M 0,0 66.74,49.24 83.891,61.9 184.65,136.23 201.8,148.88" /></g><g
       transform="translate(316.7959,645.7241)"
       id="g440"><path
         id="path442"
         style="fill:none;stroke:#ffffff;stroke-width:6;stroke-linecap:butt;stroke-linejoin:miter;stroke-miterlimit:10;stroke-dasharray:none;stroke-opacity:1"
         d="m 0,0 65.88,48.6 17.15,12.66 100.75,74.33" /></g><g
       transform="translate(102.7759,786.7144)"
       id="g444"><path
         id="path446"
         style="fill:none;stroke:#ffffff;stroke-width:6;stroke-linecap:butt;stroke-linejoin:miter;stroke-miterlimit:10;stroke-dasharray:none;stroke-opacity:1"
         d="m 0,0 16.8,-13.12 101.1,-78.9 16.8,-13.11 62.17,-48.51 16.8,-13.11 101.1,-78.91 16.8,-13.11 59.51,-46.44 16.18,-12.63 0.62,-0.48" /></g><g
       transform="translate(333.5957,632.6143)"
       id="g448"><path
         id="path450"
         style="fill:none;stroke:#ffffff;stroke-width:6;stroke-linecap:butt;stroke-linejoin:miter;stroke-miterlimit:10;stroke-dasharray:none;stroke-opacity:1"
         d="m 0,0 101.1,-78.9 16.8,-13.11 59.51,-46.45" /></g><g
       transform="translate(136.7261,786.2544)"
       id="g452"><path
         id="path454"
         style="fill:none;stroke:#ffffff;stroke-width:6;stroke-linecap:butt;stroke-linejoin:miter;stroke-miterlimit:10;stroke-dasharray:none;stroke-opacity:1"
         d="m 0,0 101.1,-78.9 16.8,-13.12 62.17,-48.51" /></g><g
       transform="translate(517.376,768.2041)"
       id="g456"><path
         id="path458"
         style="fill:none;stroke:#ffffff;stroke-width:6;stroke-linecap:butt;stroke-linejoin:miter;stroke-miterlimit:10;stroke-dasharray:none;stroke-opacity:1"
         d="m 0,0 101.11,-78.9 16.8,-13.11 59.51,-46.44" /></g><g
       transform="translate(320.5059,921.8442)"
       id="g460"><path
         id="path462"
         style="fill:none;stroke:#ffffff;stroke-width:6;stroke-linecap:butt;stroke-linejoin:miter;stroke-miterlimit:10;stroke-dasharray:none;stroke-opacity:1"
         d="m 0,0 100.8,-78.67 79.27,-61.86" /></g><g
       transform="translate(534.5254,780.8545)"
       id="g464"><path
         id="path466"
         style="fill:none;stroke:#ffffff;stroke-width:6;stroke-linecap:butt;stroke-linejoin:miter;stroke-miterlimit:10;stroke-dasharray:none;stroke-opacity:1"
         d="m 0,0 101.11,-78.9 16.8,-13.11 59.511,-46.44" /></g><g
       transform="translate(320.856,947.6045)"
       id="g468"><path
         id="path470"
         style="fill:none;stroke:#ffffff;stroke-width:6;stroke-linecap:butt;stroke-linejoin:miter;stroke-miterlimit:10;stroke-dasharray:none;stroke-opacity:1"
         d="M 0,0 16.8,-13.11 196.87,-153.64" /></g><g
       transform="translate(136.7261,786.2544)"
       id="g472"><path
         id="path474"
         style="fill:none;stroke:#ffffff;stroke-width:6;stroke-linecap:butt;stroke-linejoin:miter;stroke-miterlimit:10;stroke-dasharray:none;stroke-opacity:1"
         d="M 0,0 183.78,135.59" /></g><g
       transform="translate(102.7759,786.7144)"
       id="g476"><path
         id="path478"
         style="fill:none;stroke:#ffffff;stroke-width:6;stroke-linecap:butt;stroke-linejoin:miter;stroke-miterlimit:10;stroke-dasharray:none;stroke-opacity:1"
         d="m 0,0 17.15,12.65 183.78,135.59 17.15,12.65" /></g><g
       transform="translate(510.6558,468.3945)"
       id="g480"><path
         id="path482"
         style="fill:none;stroke:#ffffff;stroke-width:6;stroke-linecap:butt;stroke-linejoin:miter;stroke-miterlimit:10;stroke-dasharray:none;stroke-opacity:1"
         d="m 0,0 17.15,12.649 65.88,48.611 17.15,12.65 100.76,74.34 17.141,12.65 66.75,49.24 17.139,12.65 100.76,74.34 17.15,12.65" /></g><g
       transform="translate(711.9463,642.4043)"
       id="g484"><path
         id="path486"
         style="fill:none;stroke:#ffffff;stroke-width:6;stroke-linecap:butt;stroke-linejoin:miter;stroke-miterlimit:10;stroke-dasharray:none;stroke-opacity:1"
         d="M 0,0 66.739,49.24 83.89,61.89 184.64,136.22" /></g><g
       transform="translate(511.0059,494.1543)"
       id="g488"><path
         id="path490"
         style="fill:none;stroke:#ffffff;stroke-width:6;stroke-linecap:butt;stroke-linejoin:miter;stroke-miterlimit:10;stroke-dasharray:none;stroke-opacity:1"
         d="M 0,0 65.88,48.61 83.03,61.26 183.79,135.6" /></g><g
       transform="translate(510.0356,472.5039)"
       id="g492"><path
         id="path494"
         style="fill:none;stroke:#ffffff;stroke-width:6;stroke-linecap:butt;stroke-linejoin:miter;stroke-miterlimit:10;stroke-dasharray:none;stroke-opacity:1"
         d="m 0,0 v -3.63 -0.939 -152.021 -1.47 -22.389" /></g><g
       transform="translate(932.0361,778.3745)"
       id="g496"><path
         id="path498"
         style="fill:none;stroke:#ffffff;stroke-width:6;stroke-linecap:butt;stroke-linejoin:miter;stroke-miterlimit:10;stroke-dasharray:none;stroke-opacity:1"
         d="m 0,0 v -1.37 -26.04 -125.18 -25.5 -2.28 -0.08" /></g><g
       transform="translate(516.6612,588.6765)"
       id="g500"><path
         id="path502"
         style="fill:#ffffff;fill-opacity:1;fill-rule:nonzero;stroke:none"
         d="M 0,0 V 181.245 Z" /></g><g
       transform="translate(516.6611,769.9209)"
       id="g504"><path
         id="path506"
         style="fill:none;stroke:#ffffff;stroke-width:6;stroke-linecap:butt;stroke-linejoin:miter;stroke-miterlimit:10;stroke-dasharray:none;stroke-opacity:1"
         d="M 0,0 V -181.244" /></g><g
       transform="translate(320.0355,740.6766)"
       id="g508"><path
         id="path510"
         style="fill:#ffffff;fill-opacity:1;fill-rule:nonzero;stroke:none"
         d="M 0,0 V 181.245 Z" /></g><g
       transform="translate(320.0352,921.9209)"
       id="g512"><path
         id="path514"
         style="fill:none;stroke:#ffffff;stroke-width:6;stroke-linecap:butt;stroke-linejoin:miter;stroke-miterlimit:10;stroke-dasharray:none;stroke-opacity:1"
         d="M 0,0 V -181.244" /></g><g
       transform="translate(718.0353,736.0101)"
       id="g516"><path
         id="path518"
         style="fill:#ffffff;fill-opacity:1;fill-rule:nonzero;stroke:none"
         d="M 0,0 V 181.245 Z" /></g><g
       transform="translate(718.0352,917.2544)"
       id="g520"><path
         id="path522"
         style="fill:none;stroke:#ffffff;stroke-width:6;stroke-linecap:butt;stroke-linejoin:miter;stroke-miterlimit:10;stroke-dasharray:none;stroke-opacity:1"
         d="M 0,0 V -181.244" /></g></g></svg>